<svg width="201" height="268" xmlns="http://www.w3.org/2000/svg" xmlns:xlink="http://www.w3.org/1999/xlink" overflow="hidden"><defs><clipPath id="clip0"><rect x="137" y="82" width="201" height="268"/></clipPath></defs><g clip-path="url(#clip0)" transform="translate(-137 -82)"><path d="M237.483 83.5C182.819 83.5 138.5 128.272 138.5 183.494 138.5 195.377 140.559 206.771 144.33 217.361 147.513 226.291 151.924 234.627 157.355 242.176L160.936 246.895C161.248 247.262 161.576 247.629 161.888 247.996L237.5 347.5 313.112 247.996C313.424 247.629 313.752 247.262 314.064 246.895L317.645 242.176C323.076 234.627 327.488 226.291 330.67 217.361 334.442 206.789 336.5 195.395 336.5 183.494 336.465 128.272 292.146 83.5 237.483 83.5Z" stroke="#CFD5EA" stroke-width="3.40646" stroke-miterlimit="8" fill="#254061" fill-rule="evenodd"/><path d="M298.811 234.369 294.194 234.369C294.194 230.38 291.425 227.063 287.773 226.367L287.773 168.707C289.557 168.359 291.11 167.385 292.243 166.04L236.489 120 180.757 166.017C181.89 167.385 183.443 168.336 185.227 168.684L185.227 226.344C181.576 227.063 178.806 230.357 178.806 234.346L174.189 234.346C172.427 234.346 171 236.062 171 238.173 171 240.284 172.427 242 174.189 242L298.811 242C300.573 242 302 240.284 302 238.173 302 236.062 300.573 234.346 298.811 234.346ZM252.437 207.766C251.367 210.016 249.982 211.778 248.303 213.1 246.604 214.399 244.19 215.397 241.022 216.069L241.022 225.416 234.601 225.416 234.601 216.278C231.621 215.93 229.061 215.165 226.984 213.959 224.109 212.335 221.444 210.155 218.989 207.441L225.494 200.599C229.67 205.145 233.699 207.441 237.602 207.441 239.595 207.441 241.295 206.722 242.722 205.307 244.149 203.892 244.862 202.222 244.862 200.321 244.862 198.697 244.4 197.282 243.498 196.076 242.554 194.87 240.749 193.618 238.084 192.365 232.65 189.79 228.998 187.749 227.068 186.242 225.159 184.734 223.732 183.041 222.787 181.162 221.843 179.284 221.36 177.289 221.36 175.155 221.36 171.63 222.619 168.614 225.116 166.11 227.614 163.604 230.803 162.236 234.622 162.051L234.622 156.507 241.043 156.507 241.043 162.514C243.246 163.048 245.135 163.767 246.667 164.695 248.219 165.599 250.024 167.153 252.122 169.333L245.534 175.921C242.533 172.743 239.553 171.143 236.615 171.143 234.874 171.143 233.468 171.606 232.398 172.557 231.307 173.508 230.782 174.599 230.782 175.828 230.782 176.872 231.265 177.915 232.209 178.959 233.153 180.003 235.042 181.139 237.895 182.322 242.952 184.479 246.436 186.311 248.303 187.819 250.171 189.327 251.598 191.159 252.605 193.293 253.612 195.427 254.116 197.792 254.116 200.437 254.116 203.081 253.57 205.516 252.5 207.766Z" fill="#FFFFFF" fill-rule="evenodd"/><path d="M301.867 163.29 238.77 110.609C238.247 110.166 237.62 109.979 236.992 110.002 236.386 110.002 235.758 110.166 235.215 110.609L172.138 163.29C170.883 164.341 170.633 166.327 171.553 167.728 172.494 169.13 174.272 169.411 175.526 168.383L236.992 117.057 292.54 163.407 298.458 168.336C299.713 169.387 301.491 169.107 302.432 167.682 303.373 166.28 303.122 164.294 301.846 163.243Z" fill="#FFFFFF" fill-rule="evenodd"/></g></svg>