<svg width="201" height="268" xmlns="http://www.w3.org/2000/svg" xmlns:xlink="http://www.w3.org/1999/xlink" overflow="hidden"><defs><clipPath id="clip0"><rect x="1952" y="879" width="201" height="268"/></clipPath></defs><g clip-path="url(#clip0)" transform="translate(-1952 -879)"><path d="M2052.48 880.5C1997.82 880.5 1953.5 925.272 1953.5 980.494 1953.5 992.377 1955.56 1003.77 1959.33 1014.36 1962.51 1023.29 1966.92 1031.63 1972.36 1039.18L1975.94 1043.89C1976.25 1044.26 1976.58 1044.63 1976.89 1045L2052.5 1144.5 2128.11 1045C2128.42 1044.63 2128.75 1044.26 2129.06 1043.89L2132.64 1039.18C2138.08 1031.63 2142.49 1023.29 2145.67 1014.36 2149.44 1003.79 2151.5 992.395 2151.5 980.494 2151.47 925.272 2107.15 880.5 2052.48 880.5Z" stroke="#4F5F73" stroke-width="3.40646" stroke-miterlimit="8" fill="#FFFFFF" fill-rule="evenodd"/><path d="M2112.86 1028.56 2108.31 1028.56C2108.31 1024.67 2105.59 1021.43 2101.99 1020.75L2101.99 964.51C2103.75 964.17 2105.28 963.22 2106.39 961.908L2051.49 917 1996.61 961.885C1997.72 963.22 1999.25 964.148 2001.01 964.487L2001.01 1020.73C1997.41 1021.43 1994.69 1024.64 1994.69 1028.53L1990.14 1028.53C1988.41 1028.53 1987 1030.21 1987 1032.27 1987 1034.33 1988.41 1036 1990.14 1036L2112.86 1036C2114.6 1036 2116 1034.33 2116 1032.27 2116 1030.21 2114.6 1028.53 2112.86 1028.53ZM2067.19 1002.61C2066.14 1004.8 2064.78 1006.52 2063.12 1007.81 2061.45 1009.08 2059.07 1010.05 2055.95 1010.71L2055.95 1019.82 2049.63 1019.82 2049.63 1010.91C2046.7 1010.57 2044.17 1009.82 2042.13 1008.65 2039.3 1007.06 2036.67 1004.94 2034.26 1002.29L2040.66 995.617C2044.77 1000.05 2048.74 1002.29 2052.58 1002.29 2054.55 1002.29 2056.22 1001.59 2057.63 1000.21 2059.03 998.83 2059.73 997.201 2059.73 995.346 2059.73 993.762 2059.28 992.382 2058.39 991.205 2057.46 990.029 2055.68 988.807 2053.06 987.586 2047.71 985.074 2044.11 983.084 2042.21 981.613 2040.33 980.143 2038.93 978.491 2038 976.659 2037.07 974.826 2036.59 972.88 2036.59 970.799 2036.59 967.36 2037.83 964.419 2040.29 961.976 2042.75 959.532 2045.89 958.198 2049.65 958.017L2049.65 952.61 2055.97 952.61 2055.97 958.469C2058.14 958.99 2060 959.691 2061.51 960.596 2063.04 961.478 2064.82 962.994 2066.88 965.12L2060.4 971.546C2057.44 968.446 2054.51 966.885 2051.61 966.885 2049.9 966.885 2048.51 967.338 2047.46 968.265 2046.39 969.193 2045.87 970.256 2045.87 971.455 2045.87 972.473 2046.34 973.491 2047.27 974.509 2048.2 975.527 2050.06 976.636 2052.87 977.79 2057.85 979.894 2061.28 981.681 2063.12 983.151 2064.96 984.622 2066.37 986.409 2067.36 988.49 2068.35 990.572 2068.85 992.88 2068.85 995.459 2068.85 998.038 2068.31 1000.41 2067.26 1002.61Z" fill="#566DA9" fill-rule="evenodd"/><path d="M2115.88 959.483 2053.26 908.589C2052.74 908.16 2052.12 907.979 2051.49 908.002 2050.89 908.002 2050.27 908.16 2049.73 908.589L1987.13 959.483C1985.88 960.499 1985.64 962.417 1986.55 963.771 1987.48 965.126 1989.25 965.396 1990.49 964.403L2051.49 914.818 2106.62 959.596 2112.49 964.358C2113.74 965.374 2115.5 965.103 2116.44 963.726 2117.37 962.372 2117.12 960.454 2115.86 959.438Z" fill="#566DA9" fill-rule="evenodd"/></g></svg>