<svg width="201" height="268" xmlns="http://www.w3.org/2000/svg" xmlns:xlink="http://www.w3.org/1999/xlink" overflow="hidden"><defs><clipPath id="clip0"><rect x="505" y="82" width="201" height="268"/></clipPath></defs><g clip-path="url(#clip0)" transform="translate(-505 -82)"><path d="M605.483 83.5C550.819 83.5 506.5 128.272 506.5 183.494 506.5 195.377 508.558 206.771 512.329 217.361 515.512 226.291 519.924 234.627 525.355 242.176L528.936 246.895C529.247 247.262 529.576 247.629 529.888 247.996L605.5 347.5 681.112 247.996C681.424 247.629 681.752 247.262 682.064 246.895L685.644 242.176C691.076 234.627 695.487 226.291 698.67 217.361 702.441 206.789 704.5 195.395 704.5 183.494 704.465 128.272 660.146 83.5 605.483 83.5Z" stroke="#4F5F73" stroke-width="3.40646" stroke-miterlimit="8" fill="#FFFFFF" fill-rule="evenodd"/></g></svg>