<svg width="201" height="268" xmlns="http://www.w3.org/2000/svg" xmlns:xlink="http://www.w3.org/1999/xlink" overflow="hidden"><defs><clipPath id="clip0"><rect x="1628" y="879" width="201" height="268"/></clipPath></defs><g clip-path="url(#clip0)" transform="translate(-1628 -879)"><path d="M1728.48 880.5C1673.82 880.5 1629.5 925.272 1629.5 980.494 1629.5 992.377 1631.56 1003.77 1635.33 1014.36 1638.51 1023.29 1642.92 1031.63 1648.36 1039.18L1651.94 1043.89C1652.25 1044.26 1652.58 1044.63 1652.89 1045L1728.5 1144.5 1804.11 1045C1804.42 1044.63 1804.75 1044.26 1805.06 1043.89L1808.64 1039.18C1814.08 1031.63 1818.49 1023.29 1821.67 1014.36 1825.44 1003.79 1827.5 992.395 1827.5 980.494 1827.47 925.272 1783.15 880.5 1728.48 880.5Z" stroke="#CFD5EA" stroke-width="3.40646" stroke-miterlimit="8" fill="#8064A2" fill-rule="evenodd"/><path d="M1773.9 941.632C1776.46 937.965 1774.16 934 1770.93 934L1686.53 934C1682.71 934 1680.56 937.713 1683.1 941.38 1683.85 942.434 1720.78 991.55 1725.12 997.326L1725.12 1052.42 1708.62 1060.79C1704.88 1062.67 1709.05 1067 1728.8 1067 1748.55 1067 1751.4 1061.96 1748.98 1060.79L1731.96 1052.15 1731.96 997.326C1736.21 991.665 1773.02 942.87 1773.9 941.609ZM1728.46 987.539C1724.87 987.539 1722.09 983.482 1722.09 983.482 1722.09 983.482 1692.44 943.924 1691.8 943.122 1691.17 942.32 1691.11 940.028 1694.05 940.028L1763.22 940.028C1765.71 940.028 1766.06 942.09 1765.3 943.122 1764.57 944.107 1734.88 983.482 1734.88 983.482 1734.88 983.482 1732.08 987.539 1728.48 987.539Z" fill="#FFFFFF" fill-rule="evenodd"/><path d="M1750.46 952 1706.65 952C1704.78 952 1704.82 953.393 1705.22 953.887 1705.62 954.381 1724.41 978.529 1724.41 978.529 1724.41 978.529 1726.17 981 1728.46 981 1730.74 981 1732.51 978.529 1732.51 978.529 1732.51 978.529 1751.44 954.314 1751.77 953.887 1752.26 953.258 1752.03 952 1750.46 952ZM1732.24 973.924C1729.2 973.924 1726.73 971.004 1726.73 967.41 1726.73 963.816 1729.2 960.895 1732.24 960.895 1735.28 960.895 1737.75 963.816 1737.75 967.41 1737.75 971.004 1735.28 973.924 1732.24 973.924Z" fill="#FFFFFF" fill-rule="evenodd"/></g></svg>