<svg width="212" height="283" xmlns="http://www.w3.org/2000/svg" xmlns:xlink="http://www.w3.org/1999/xlink" overflow="hidden"><defs><clipPath id="clip0"><rect x="1066" y="76" width="212" height="283"/></clipPath></defs><g clip-path="url(#clip0)" transform="translate(-1066 -76)"><path d="M1171.98 82.9998C1117.32 82.9998 1073 127.772 1073 182.994 1073 194.877 1075.06 206.271 1078.83 216.861 1082.01 225.791 1086.42 234.127 1091.86 241.676L1095.44 246.395C1095.75 246.761 1096.08 247.128 1096.39 247.495L1172 347 1247.61 247.495C1247.92 247.128 1248.25 246.761 1248.56 246.395L1252.14 241.676C1257.58 234.127 1261.99 225.791 1265.17 216.861 1268.94 206.288 1271 194.895 1271 182.994 1270.97 127.772 1226.65 82.9998 1171.98 82.9998Z" stroke="#4F5F73" stroke-width="13.75" stroke-miterlimit="8" fill="#FFFFFF" fill-rule="evenodd"/><path d="M1233.5 136.55C1237 132.442 1233.86 128 1229.44 128L1114.18 128C1108.97 128 1106.03 132.159 1109.51 136.268 1110.53 137.449 1160.95 192.473 1166.88 198.944L1166.88 260.67 1144.35 270.042C1139.24 272.147 1144.94 277 1171.91 277 1198.89 277 1202.77 271.351 1199.47 270.042L1176.23 260.362 1176.23 198.944C1182.03 192.602 1232.3 137.937 1233.5 136.525ZM1171.45 187.98C1166.55 187.98 1162.74 183.435 1162.74 183.435 1162.74 183.435 1122.25 139.118 1121.39 138.219 1120.52 137.32 1120.44 134.753 1124.45 134.753L1218.91 134.753C1222.31 134.753 1222.8 137.064 1221.75 138.219 1220.75 139.323 1180.21 183.435 1180.21 183.435 1180.21 183.435 1176.38 187.98 1171.48 187.98Z" fill="#254061" fill-rule="evenodd"/><path d="M1200.96 148 1164.71 148 1172.77 170.52C1172.77 170.52 1173.99 173.843 1171.7 174.738 1169.02 175.786 1167.57 172.514 1167.57 172.514L1153.52 148 1142.21 148C1139.71 148 1139.76 149.585 1140.3 150.147 1140.83 150.71 1166.01 178.188 1166.01 178.188 1166.01 178.188 1168.38 181 1171.44 181 1174.5 181 1176.87 178.188 1176.87 178.188 1176.87 178.188 1202.08 150.837 1202.69 150.147 1203.35 149.432 1203.04 148 1200.93 148Z" fill="#254061" fill-rule="evenodd"/></g></svg>