<svg width="203" height="271" xmlns="http://www.w3.org/2000/svg" xmlns:xlink="http://www.w3.org/1999/xlink" overflow="hidden"><defs><clipPath id="clip0"><rect x="1071" y="81" width="203" height="271"/></clipPath></defs><g clip-path="url(#clip0)" transform="translate(-1071 -81)"><path d="M1172.48 83.5C1117.82 83.5 1073.5 128.272 1073.5 183.494 1073.5 195.377 1075.56 206.771 1079.33 217.361 1082.51 226.291 1086.92 234.627 1092.36 242.176L1095.94 246.895C1096.25 247.262 1096.58 247.629 1096.89 247.996L1172.5 347.5 1248.11 247.996C1248.42 247.629 1248.75 247.262 1249.06 246.895L1252.64 242.176C1258.08 234.627 1262.49 226.291 1265.67 217.361 1269.44 206.789 1271.5 195.395 1271.5 183.494 1271.47 128.272 1227.15 83.5 1172.48 83.5Z" stroke="#4F5F73" stroke-width="4.58333" stroke-miterlimit="8" fill="#FFFFFF" fill-rule="evenodd"/><path d="M1233.5 136.55C1237 132.442 1233.86 128 1229.44 128L1114.18 128C1108.97 128 1106.03 132.159 1109.51 136.268 1110.53 137.449 1160.95 192.473 1166.88 198.944L1166.88 260.67 1144.35 270.042C1139.24 272.147 1144.94 277 1171.91 277 1198.89 277 1202.77 271.351 1199.47 270.042L1176.23 260.362 1176.23 198.944C1182.03 192.602 1232.3 137.937 1233.5 136.525ZM1171.45 187.98C1166.55 187.98 1162.74 183.435 1162.74 183.435 1162.74 183.435 1122.25 139.118 1121.39 138.219 1120.52 137.32 1120.44 134.753 1124.45 134.753L1218.91 134.753C1222.31 134.753 1222.8 137.064 1221.75 138.219 1220.75 139.323 1180.21 183.435 1180.21 183.435 1180.21 183.435 1176.38 187.98 1171.48 187.98Z" fill="#254061" fill-rule="evenodd"/><path d="M1200.96 148 1164.71 148 1172.77 170.52C1172.77 170.52 1173.99 173.843 1171.7 174.738 1169.02 175.786 1167.57 172.514 1167.57 172.514L1153.52 148 1142.21 148C1139.71 148 1139.76 149.585 1140.3 150.147 1140.83 150.71 1166.01 178.188 1166.01 178.188 1166.01 178.188 1168.38 181 1171.44 181 1174.5 181 1176.87 178.188 1176.87 178.188 1176.87 178.188 1202.08 150.837 1202.69 150.147 1203.35 149.432 1203.04 148 1200.93 148Z" fill="#254061" fill-rule="evenodd"/></g></svg>