<svg width="264" height="271" xmlns="http://www.w3.org/2000/svg" xmlns:xlink="http://www.w3.org/1999/xlink" overflow="hidden"><defs><clipPath id="clip0"><rect x="2118" y="1589" width="264" height="271"/></clipPath></defs><g clip-path="url(#clip0)" transform="translate(-2118 -1589)"><path d="M2249.98 1591.5C2198.91 1591.5 2157.5 1636.27 2157.5 1691.49 2157.5 1703.38 2159.42 1714.77 2162.95 1725.36 2165.92 1734.29 2170.04 1742.63 2175.12 1750.18L2178.46 1754.89C2178.75 1755.26 2179.06 1755.63 2179.35 1756L2250 1855.5 2320.65 1756C2320.94 1755.63 2321.25 1755.26 2321.54 1754.89L2324.88 1750.18C2329.96 1742.63 2334.08 1734.29 2337.05 1725.36 2340.58 1714.79 2342.5 1703.39 2342.5 1691.49 2342.47 1636.27 2301.06 1591.5 2249.98 1591.5Z" stroke="#CFD5EA" stroke-width="4.58333" stroke-miterlimit="8" fill-rule="evenodd"/></g></svg>