<svg width="201" height="268" xmlns="http://www.w3.org/2000/svg" xmlns:xlink="http://www.w3.org/1999/xlink" overflow="hidden"><defs><clipPath id="clip0"><rect x="742" y="73" width="201" height="268"/></clipPath></defs><g clip-path="url(#clip0)" transform="translate(-742 -73)"><path d="M842.483 74.5001C787.819 74.5001 743.5 119.272 743.5 174.494 743.5 186.377 745.559 197.771 749.33 208.361 752.513 217.291 756.924 225.627 762.355 233.176L765.936 237.895C766.248 238.262 766.576 238.629 766.888 238.996L842.5 338.5 918.112 238.996C918.424 238.629 918.753 238.262 919.064 237.895L922.645 233.176C928.076 225.627 932.488 217.291 935.671 208.361 939.442 197.789 941.5 186.395 941.5 174.494 941.465 119.272 897.146 74.5001 842.483 74.5001Z" stroke="#4F5F73" stroke-width="3.40646" stroke-miterlimit="8" fill="#FFFFFF" fill-rule="evenodd"/><path d="M875.446 234.786C874.652 233.452 873.449 232.548 871.887 232.095 871.887 232.095 871.887 232.095 871.887 232.095 871.836 232.095 871.81 232.095 871.785 232.095 871.529 232.095 871.273 232.095 871.042 232.024 870.991 232.024 870.966 232.024 870.914 232L870.889 232C870.889 232 870.838 232 870.838 232 870.377 232 869.941 232.024 869.481 232.024 859.778 232.024 850.075 232.024 840.371 232.024 839.015 232.024 837.709 232.119 836.48 232.738 836.327 232.833 836.198 232.905 836.045 233 835.098 233.857 834.355 234.833 834.048 236.048 833.945 237 833.997 237.929 834.304 238.833 835.046 240.262 836.096 241.357 837.786 241.81 838.323 241.952 838.861 242 839.399 242 849.767 242 860.136 242 870.505 242 871.426 242 872.297 241.786 873.142 241.476 873.219 241.429 873.321 241.381 873.398 241.334L873.398 241.334C873.398 241.334 873.398 241.334 873.398 241.334L873.398 241.334C873.398 241.334 873.398 241.334 873.398 241.334 873.526 241.238 873.679 241.143 873.807 241.048 873.858 241.024 873.91 240.976 873.961 240.953 875.907 239.31 876.495 237.333 875.574 235.024 875.471 234.976 875.471 234.881 875.471 234.786Z" fill="#254061" fill-rule="evenodd"/><path d="M884.5 161C896.935 161 907 151.605 907 140 907 128.395 896.935 119 884.5 119 872.066 119 862 128.395 862 140 862 151.605 872.066 161 884.5 161ZM884.5 131.422C889.572 131.422 893.691 135.266 893.691 140 893.691 144.733 889.572 148.578 884.5 148.578 879.429 148.578 875.31 144.733 875.31 140 875.31 135.266 879.429 131.422 884.5 131.422Z" fill="#254061" fill-rule="evenodd"/><path d="M829 162C843.918 162 856 150.366 856 136 856 121.634 843.918 110 829 110 814.081 110 802 121.634 802 136 802 150.366 814.081 162 829 162ZM829 125.39C835.079 125.39 840.018 130.146 840.018 136 840.018 141.854 835.079 146.61 829 146.61 822.921 146.61 817.982 141.854 817.982 136 817.982 130.146 822.921 125.39 829 125.39Z" fill="#254061" fill-rule="evenodd"/><path d="M776 175.504 776 218.519C776 221.17 778.9 222.84 781.275 221.563L799 211.939 799 181.667 781.225 172.411C778.875 171.183 776.025 172.853 776.025 175.48Z" fill="#254061" fill-rule="evenodd"/><path d="M891.617 165C900.665 165 908 171.959 908 180.545L908 213.455C908 222.04 900.665 229 891.617 229L818.382 229C809.335 229 802 222.04 802 213.455L802 180.545C802 171.959 809.335 165 818.382 165Z" fill="#254061" fill-rule="evenodd"/></g></svg>