<svg width="201" height="268" xmlns="http://www.w3.org/2000/svg" xmlns:xlink="http://www.w3.org/1999/xlink" overflow="hidden"><defs><clipPath id="clip0"><rect x="1638" y="879" width="201" height="268"/></clipPath></defs><g clip-path="url(#clip0)" transform="translate(-1638 -879)"><path d="M1738.48 880.5C1683.82 880.5 1639.5 925.272 1639.5 980.494 1639.5 992.377 1641.56 1003.77 1645.33 1014.36 1648.51 1023.29 1652.92 1031.63 1658.36 1039.18L1661.94 1043.89C1662.25 1044.26 1662.58 1044.63 1662.89 1045L1738.5 1144.5 1814.11 1045C1814.42 1044.63 1814.75 1044.26 1815.06 1043.89L1818.64 1039.18C1824.08 1031.63 1828.49 1023.29 1831.67 1014.36 1835.44 1003.79 1837.5 992.395 1837.5 980.494 1837.47 925.272 1793.15 880.5 1738.48 880.5Z" stroke="#CFD5EA" stroke-width="3.40646" stroke-miterlimit="8" fill="#254061" fill-rule="evenodd"/><path d="M1764.56 1030.51C1763.94 1029.31 1763 1028.49 1761.77 1028.09 1761.77 1028.09 1761.77 1028.09 1761.77 1028.09 1761.73 1028.09 1761.71 1028.09 1761.69 1028.09 1761.49 1028.09 1761.29 1028.09 1761.1 1028.02 1761.06 1028.02 1761.04 1028.02 1761 1028L1760.98 1028C1760.98 1028 1760.94 1028 1760.94 1028 1760.58 1028 1760.24 1028.02 1759.88 1028.02 1752.25 1028.02 1744.63 1028.02 1737.01 1028.02 1735.94 1028.02 1734.91 1028.11 1733.95 1028.66 1733.83 1028.75 1733.73 1028.81 1733.61 1028.9 1732.86 1029.67 1732.28 1030.55 1732.04 1031.64 1731.96 1032.5 1732 1033.34 1732.24 1034.15 1732.82 1035.44 1733.65 1036.42 1734.97 1036.83 1735.4 1036.96 1735.82 1037 1736.24 1037 1744.39 1037 1752.54 1037 1760.68 1037 1761.41 1037 1762.09 1036.81 1762.75 1036.53 1762.81 1036.49 1762.9 1036.44 1762.96 1036.4L1762.96 1036.4C1762.96 1036.4 1762.96 1036.4 1762.96 1036.4L1762.96 1036.4C1762.96 1036.4 1762.96 1036.4 1762.96 1036.4 1763.06 1036.31 1763.18 1036.23 1763.28 1036.14 1763.32 1036.12 1763.36 1036.08 1763.4 1036.06 1764.93 1034.58 1765.39 1032.8 1764.67 1030.72 1764.58 1030.68 1764.58 1030.59 1764.58 1030.51Z" fill="#FFFFFF" fill-rule="evenodd"/><path d="M1771.5 969C1781.17 969 1789 961.171 1789 951.5 1789 941.829 1781.17 934 1771.5 934 1761.83 934 1754 941.829 1754 951.5 1754 961.171 1761.83 969 1771.5 969ZM1771.5 944.352C1775.44 944.352 1778.65 947.555 1778.65 951.5 1778.65 955.445 1775.44 958.648 1771.5 958.648 1767.56 958.648 1764.35 955.445 1764.35 951.5 1764.35 947.555 1767.56 944.352 1771.5 944.352Z" fill="#FFFFFF" fill-rule="evenodd"/><path d="M1728.5 970C1740.38 970 1750 960.38 1750 948.5 1750 936.621 1740.38 927 1728.5 927 1716.62 927 1707 936.621 1707 948.5 1707 960.38 1716.62 970 1728.5 970ZM1728.5 939.727C1733.34 939.727 1737.27 943.66 1737.27 948.5 1737.27 953.341 1733.34 957.274 1728.5 957.274 1723.66 957.274 1719.73 953.341 1719.73 948.5 1719.73 943.66 1723.66 939.727 1728.5 939.727Z" fill="#FFFFFF" fill-rule="evenodd"/><path d="M1686 981.874 1686 1017.15C1686 1019.32 1688.4 1020.69 1690.36 1019.64L1705 1011.75 1705 986.927 1690.32 979.337C1688.38 978.33 1686.02 979.699 1686.02 981.853Z" fill="#FFFFFF" fill-rule="evenodd"/><path d="M1777.17 972C1784.26 972 1790 977.872 1790 985.116L1790 1012.88C1790 1020.13 1784.26 1026 1777.17 1026L1719.83 1026C1712.74 1026 1707 1020.13 1707 1012.88L1707 985.116C1707 977.872 1712.74 972 1719.83 972Z" fill="#FFFFFF" fill-rule="evenodd"/></g></svg>