<svg width="201" height="268" xmlns="http://www.w3.org/2000/svg" xmlns:xlink="http://www.w3.org/1999/xlink" overflow="hidden"><defs><clipPath id="clip0"><rect x="1628" y="879" width="201" height="268"/></clipPath></defs><g clip-path="url(#clip0)" transform="translate(-1628 -879)"><path d="M1728.48 880.5C1673.82 880.5 1629.5 925.272 1629.5 980.494 1629.5 992.377 1631.56 1003.77 1635.33 1014.36 1638.51 1023.29 1642.92 1031.63 1648.36 1039.18L1651.94 1043.89C1652.25 1044.26 1652.58 1044.63 1652.89 1045L1728.5 1144.5 1804.11 1045C1804.42 1044.63 1804.75 1044.26 1805.06 1043.89L1808.64 1039.18C1814.08 1031.63 1818.49 1023.29 1821.67 1014.36 1825.44 1003.79 1827.5 992.395 1827.5 980.494 1827.47 925.272 1783.15 880.5 1728.48 880.5Z" stroke="#CFD5EA" stroke-width="3.40646" stroke-miterlimit="8" fill="#77933C" fill-rule="evenodd"/></g></svg>