<svg width="201" height="268" xmlns="http://www.w3.org/2000/svg" xmlns:xlink="http://www.w3.org/1999/xlink" overflow="hidden"><defs><clipPath id="clip0"><rect x="439" y="82" width="201" height="268"/></clipPath></defs><g clip-path="url(#clip0)" transform="translate(-439 -82)"><path d="M539.483 83.5C484.819 83.5 440.5 128.272 440.5 183.494 440.5 195.377 442.558 206.771 446.329 217.361 449.512 226.291 453.924 234.627 459.355 242.176L462.936 246.895C463.247 247.262 463.576 247.629 463.888 247.996L539.5 347.5 615.112 247.996C615.424 247.629 615.752 247.262 616.064 246.895L619.644 242.176C625.076 234.627 629.487 226.291 632.67 217.361 636.441 206.789 638.5 195.395 638.5 183.494 638.465 128.272 594.146 83.5 539.483 83.5Z" stroke="#4F5F73" stroke-width="3.40646" stroke-miterlimit="8" fill="#FFFFFF" fill-rule="evenodd"/><path d="M577.222 171C578.756 171 580 172.249 580 173.79L580 182.21C580 183.751 578.756 185 577.222 185L500.778 185C499.244 185 498 183.751 498 182.21L498 173.79C498 172.249 499.244 171 500.778 171Z" fill="#254061" fill-rule="evenodd"/><path d="M461 187 461 187C458.789 187 457 184.631 457 181.702L457 176.298C457 173.369 458.789 171 461 171L461 171 461 187 461 187Z" fill="#254061" fill-rule="evenodd"/><path d="M471.5 208C468.462 208 466 205.317 466 202.007L466 154.993C466 151.683 468.462 149 471.5 149L471.5 149C474.538 149 477 151.683 477 154.993L477 202.007C477 205.317 474.538 208 471.5 208Z" fill="#254061" fill-rule="evenodd"/><path d="M487.5 220C484.462 220 482 217.321 482 214.016L482 143.984C482 140.679 484.462 138 487.5 138L487.5 138C490.538 138 493 140.679 493 143.984L493 214.016C493 217.321 490.538 220 487.5 220Z" fill="#254061" fill-rule="evenodd"/><path d="M617 171 617 171C619.764 171 622 173.369 622 176.298L622 181.702C622 184.631 619.764 187 617 187L617 187 617 171 617 171Z" fill="#254061" fill-rule="evenodd"/><path d="M606.5 149C609.538 149 612 151.683 612 154.993L612 202.007C612 205.317 609.538 208 606.5 208L606.5 208C603.462 208 601 205.317 601 202.007L601 154.993C601 151.683 603.462 149 606.5 149Z" fill="#254061" fill-rule="evenodd"/><path d="M590.5 138C593.538 138 596 140.679 596 143.984L596 214.016C596 217.321 593.538 220 590.5 220L590.5 220C587.462 220 585 217.321 585 214.016L585 143.984C585 140.679 587.462 138 590.5 138Z" fill="#254061" fill-rule="evenodd"/></g></svg>