<svg width="201" height="268" xmlns="http://www.w3.org/2000/svg" xmlns:xlink="http://www.w3.org/1999/xlink" overflow="hidden"><defs><clipPath id="clip0"><rect x="1638" y="879" width="201" height="268"/></clipPath></defs><g clip-path="url(#clip0)" transform="translate(-1638 -879)"><path d="M1738.48 880.5C1683.82 880.5 1639.5 925.272 1639.5 980.494 1639.5 992.377 1641.56 1003.77 1645.33 1014.36 1648.51 1023.29 1652.92 1031.63 1658.36 1039.18L1661.94 1043.89C1662.25 1044.26 1662.58 1044.63 1662.89 1045L1738.5 1144.5 1814.11 1045C1814.42 1044.63 1814.75 1044.26 1815.06 1043.89L1818.64 1039.18C1824.08 1031.63 1828.49 1023.29 1831.67 1014.36 1835.44 1003.79 1837.5 992.395 1837.5 980.494 1837.47 925.272 1793.15 880.5 1738.48 880.5Z" stroke="#CFD5EA" stroke-width="3.40646" stroke-miterlimit="8" fill="#254061" fill-rule="evenodd"/><path d="M1774.46 975C1775.86 975 1777 976.249 1777 977.79L1777 986.21C1777 987.751 1775.86 989 1774.46 989L1704.54 989C1703.14 989 1702 987.751 1702 986.21L1702 977.79C1702 976.249 1703.14 975 1704.54 975Z" fill="#FFFFFF" fill-rule="evenodd"/><path d="M1668 990 1668 990C1665.79 990 1664 987.779 1664 985.033L1664 979.967C1664 977.221 1665.79 975 1668 975L1668 975 1668 990 1668 990Z" fill="#FFFFFF" fill-rule="evenodd"/><path d="M1678 1011C1675.24 1011 1673 1008.41 1673 1005.21L1673 959.789C1673 956.592 1675.24 954 1678 954L1678 954C1680.76 954 1683 956.592 1683 959.789L1683 1005.21C1683 1008.41 1680.76 1011 1678 1011Z" fill="#FFFFFF" fill-rule="evenodd"/><path d="M1692.5 1022C1689.46 1022 1687 1019.42 1687 1016.23L1687 948.765C1687 945.581 1689.46 943 1692.5 943L1692.5 943C1695.54 943 1698 945.581 1698 948.765L1698 1016.23C1698 1019.42 1695.54 1022 1692.5 1022Z" fill="#FFFFFF" fill-rule="evenodd"/><path d="M1811 975 1811 975C1813.21 975 1815 977.221 1815 979.967L1815 985.033C1815 987.779 1813.21 990 1811 990L1811 990 1811 975 1811 975Z" fill="#FFFFFF" fill-rule="evenodd"/><path d="M1801 954C1803.76 954 1806 956.592 1806 959.79L1806 1005.21C1806 1008.41 1803.76 1011 1801 1011L1801 1011C1798.24 1011 1796 1008.41 1796 1005.21L1796 959.79C1796 956.592 1798.24 954 1801 954Z" fill="#FFFFFF" fill-rule="evenodd"/><path d="M1786.5 943C1789.54 943 1792 945.581 1792 948.765L1792 1016.23C1792 1019.42 1789.54 1022 1786.5 1022L1786.5 1022C1783.46 1022 1781 1019.42 1781 1016.23L1781 948.765C1781 945.581 1783.46 943 1786.5 943Z" fill="#FFFFFF" fill-rule="evenodd"/></g></svg>